<svg width="18" height="18" viewBox="0 0 18 18" fill="none" xmlns="http://www.w3.org/2000/svg">
<path d="M4.89999 10.1V9.39999L5.59999 8.79999C6.69999 7.79999 7.29999 7.19999 7.29999 6.59999C7.29999 6.19999 6.99999 5.79999 6.39999 5.79999C5.99999 5.79999 5.59999 5.99999 5.29999 6.19999L4.99999 5.29999C5.39999 4.99999 5.99999 4.79999 6.69999 4.79999C7.89999 4.79999 8.49999 5.49999 8.49999 6.39999C8.49999 7.29999 7.89999 7.99999 7.09999 8.59999L6.59999 9.09999H8.59999V10.1H4.89999Z" fill="#666666"/>
<path d="M13.1 4.89999V5.69999L11 10.1H9.69999L11.8 5.89999H9.39999V4.89999H13.1Z" fill="#666666"/>
<path d="M16.8 12.5H1.2C0.8 12.5 0.5 12.2 0.5 11.9V3.1C0.5 2.7 0.8 2.5 1.2 2.5H16.8C17.2 2.5 17.5 2.8 17.5 3.1V11.8C17.5 12.2 17.2 12.5 16.8 12.5Z" stroke="#666666" stroke-miterlimit="10"/>
<path d="M14 16.5H4" stroke="#666666"/>
<path d="M10 12.5H8V16.5H10V12.5Z" fill="#666666"/>
</svg>
